# xmcd
#
# Track frame offsets:
#	150
#	44112
#	69027
#	96511
#	125537
#	156119
#	185831
#	206942
#	231476
#	267323
#	288260
#	317972
#
# Disc length: 4473 seconds
#
# Revision: 0
# Processed by: cddbd v1.5.2PL0 Copyright (c) Steve Scherf et al.
# Submitted via: EasyCDDAExtractor 12.0.4.1
#
DISCID=c111770c
DTITLE=Metallica - For Whom The Bells Toll [CD.2)
DYEAR=2010
DGENRE=Hard Rock
TTITLE0=And Justice For All
TTITLE1=Enter Sandman
TTITLE2=Turn The Page
TTITLE3=Welcome Home (Sanatarium)
TTITLE4=Nothing Else Matters (Symphony Version) (Live)
TTITLE5=Creeping Death
TTITLE6=Jump In The Fire
TTITLE7=Sweet Amber
TTITLE8=All Nightmare Long
TTITLE9=The Memory Remains
TTITLE10=The Thing That Should Not Be
TTITLE11=The Struggle Within
EXTD=
EXTT0=
EXTT1=
EXTT2=
EXTT3=
EXTT4=
EXTT5=
EXTT6=
EXTT7=
EXTT8=
EXTT9=
EXTT10=
EXTT11=
PLAYORDER=
